<svg xmlns="http://www.w3.org/2000/svg" viewBox="0 0 417 433" width="100%" height="100%">
  <style>
    .logo-element {
      fill: #000000;
    }
    @media (prefers-color-scheme: dark) {
      .logo-element {
        fill: #ffffff;
      }
    }
  </style>
  <!-- Outer and Inner Border -->
  <path class="logo-element" d="M 39.0 33.0 L 30.0 42.0 L 30.0 43.0 L 25.0 49.0 L 25.0 50.0 L 20.0 59.0 L 20.0 61.0 L 19.0 62.0 L 19.0 64.0 L 18.0 65.0 L 18.0 67.0 L 17.0 68.0 L 17.0 72.0 L 16.0 73.0 L 16.0 365.0 L 17.0 366.0 L 17.0 370.0 L 18.0 371.0 L 19.0 376.0 L 21.0 379.0 L 21.0 381.0 L 22.0 382.0 L 23.0 385.0 L 29.0 393.0 L 29.0 394.0 L 40.0 405.0 L 41.0 405.0 L 44.0 408.0 L 47.0 409.0 L 49.0 411.0 L 50.0 411.0 L 55.0 414.0 L 57.0 414.0 L 60.0 416.0 L 62.0 416.0 L 63.0 417.0 L 66.0 417.0 L 67.0 418.0 L 72.0 418.0 L 73.0 419.0 L 344.0 419.0 L 345.0 418.0 L 349.0 418.0 L 350.0 417.0 L 353.0 417.0 L 354.0 416.0 L 356.0 416.0 L 359.0 414.0 L 361.0 414.0 L 362.0 413.0 L 367.0 411.0 L 369.0 409.0 L 372.0 408.0 L 375.0 405.0 L 376.0 405.0 L 386.0 395.0 L 386.0 394.0 L 389.0 391.0 L 390.0 388.0 L 392.0 386.0 L 392.0 385.0 L 397.0 376.0 L 397.0 374.0 L 398.0 373.0 L 398.0 371.0 L 399.0 370.0 L 399.0 367.0 L 400.0 366.0 L 400.0 361.0 L 401.0 360.0 L 401.0 78.0 L 400.0 77.0 L 400.0 72.0 L 399.0 71.0 L 399.0 68.0 L 398.0 67.0 L 398.0 64.0 L 397.0 63.0 L 397.0 61.0 L 396.0 60.0 L 396.0 59.0 L 395.0 58.0 L 395.0 57.0 L 394.0 56.0 L 391.0 49.0 L 389.0 47.0 L 389.0 46.0 L 387.0 44.0 L 387.0 43.0 L 376.0 32.0 L 375.0 32.0 L 372.0 29.0 L 369.0 28.0 L 367.0 26.0 L 366.0 26.0 L 359.0 22.0 L 357.0 22.0 L 356.0 21.0 L 354.0 21.0 L 353.0 20.0 L 350.0 20.0 L 349.0 19.0 L 344.0 19.0 L 343.0 18.0 L 73.0 18.0 L 72.0 19.0 L 67.0 19.0 L 66.0 20.0 L 63.0 20.0 L 62.0 21.0 L 60.0 21.0 L 57.0 23.0 L 55.0 23.0 L 54.0 24.0 L 49.0 26.0 L 47.0 28.0 L 46.0 28.0 L 44.0 30.0 L 43.0 30.0 L 40.0 33.0 Z M 46.0 37.0 L 47.0 37.0 L 50.0 34.0 L 53.0 33.0 L 55.0 31.0 L 56.0 31.0 L 57.0 30.0 L 59.0 30.0 L 62.0 28.0 L 65.0 28.0 L 66.0 27.0 L 69.0 27.0 L 70.0 26.0 L 78.0 26.0 L 79.0 25.0 L 339.0 25.0 L 340.0 26.0 L 347.0 26.0 L 348.0 27.0 L 351.0 27.0 L 352.0 28.0 L 357.0 29.0 L 358.0 30.0 L 363.0 32.0 L 365.0 34.0 L 366.0 34.0 L 368.0 36.0 L 369.0 36.0 L 381.0 48.0 L 381.0 49.0 L 386.0 55.0 L 386.0 56.0 L 389.0 61.0 L 389.0 63.0 L 391.0 66.0 L 391.0 69.0 L 392.0 70.0 L 392.0 73.0 L 393.0 74.0 L 393.0 82.0 L 394.0 83.0 L 394.0 147.0 L 393.0 148.0 L 393.0 149.0 L 394.0 150.0 L 393.0 151.0 L 393.0 155.0 L 394.0 156.0 L 394.0 181.0 L 393.0 182.0 L 393.0 186.0 L 394.0 187.0 L 394.0 225.0 L 393.0 226.0 L 393.0 233.0 L 394.0 234.0 L 394.0 254.0 L 393.0 255.0 L 393.0 267.0 L 394.0 268.0 L 394.0 292.0 L 393.0 293.0 L 393.0 295.0 L 394.0 296.0 L 394.0 335.0 L 393.0 336.0 L 393.0 350.0 L 394.0 351.0 L 394.0 353.0 L 393.0 354.0 L 393.0 363.0 L 392.0 364.0 L 392.0 367.0 L 391.0 368.0 L 391.0 370.0 L 390.0 371.0 L 389.0 376.0 L 388.0 377.0 L 386.0 382.0 L 381.0 388.0 L 381.0 389.0 L 370.0 400.0 L 369.0 400.0 L 366.0 403.0 L 365.0 403.0 L 356.0 408.0 L 354.0 408.0 L 353.0 409.0 L 351.0 409.0 L 350.0 410.0 L 347.0 410.0 L 346.0 411.0 L 336.0 411.0 L 335.0 412.0 L 78.0 412.0 L 77.0 411.0 L 70.0 411.0 L 69.0 410.0 L 66.0 410.0 L 65.0 409.0 L 60.0 408.0 L 59.0 407.0 L 52.0 404.0 L 50.0 402.0 L 49.0 402.0 L 47.0 400.0 L 46.0 400.0 L 35.0 389.0 L 35.0 388.0 L 31.0 383.0 L 31.0 382.0 L 27.0 375.0 L 27.0 373.0 L 25.0 370.0 L 25.0 367.0 L 24.0 366.0 L 24.0 362.0 L 23.0 361.0 L 23.0 76.0 L 24.0 75.0 L 24.0 71.0 L 25.0 70.0 L 25.0 68.0 L 26.0 67.0 L 27.0 62.0 L 28.0 61.0 L 31.0 54.0 L 36.0 48.0 L 36.0 47.0 Z" fill-rule="evenodd" />
  
  <!-- Roman Numeral III -->
  <path class="logo-element" d="M 91.0 130.0 L 91.0 135.0 L 95.0 135.0 L 96.0 136.0 L 100.0 136.0 L 101.0 137.0 L 103.0 137.0 L 104.0 138.0 L 107.0 139.0 L 111.0 143.0 L 111.0 144.0 L 112.0 145.0 L 112.0 147.0 L 113.0 148.0 L 113.0 158.0 L 114.0 159.0 L 114.0 285.0 L 113.0 286.0 L 113.0 292.0 L 112.0 293.0 L 112.0 295.0 L 107.0 301.0 L 106.0 301.0 L 105.0 302.0 L 103.0 302.0 L 102.0 303.0 L 100.0 303.0 L 99.0 304.0 L 94.0 304.0 L 93.0 305.0 L 91.0 305.0 L 91.0 310.0 L 161.0 310.0 L 161.0 305.0 L 160.0 304.0 L 154.0 304.0 L 153.0 303.0 L 150.0 303.0 L 149.0 302.0 L 147.0 302.0 L 145.0 300.0 L 144.0 300.0 L 140.0 295.0 L 140.0 293.0 L 139.0 292.0 L 139.0 268.0 L 138.0 267.0 L 138.0 255.0 L 139.0 254.0 L 139.0 239.0 L 138.0 238.0 L 138.0 226.0 L 139.0 225.0 L 139.0 213.0 L 138.0 212.0 L 138.0 200.0 L 139.0 199.0 L 139.0 148.0 L 140.0 147.0 L 140.0 145.0 L 141.0 144.0 L 141.0 143.0 L 145.0 139.0 L 146.0 139.0 L 149.0 137.0 L 151.0 137.0 L 152.0 136.0 L 156.0 136.0 L 157.0 135.0 L 161.0 135.0 L 161.0 130.0 Z" />
  <path class="logo-element" d="M 173.0 130.0 L 173.0 135.0 L 177.0 135.0 L 178.0 136.0 L 181.0 136.0 L 182.0 137.0 L 185.0 137.0 L 186.0 138.0 L 189.0 139.0 L 193.0 143.0 L 193.0 144.0 L 194.0 145.0 L 194.0 148.0 L 195.0 149.0 L 195.0 291.0 L 194.0 292.0 L 194.0 294.0 L 193.0 295.0 L 192.0 298.0 L 189.0 301.0 L 188.0 301.0 L 185.0 303.0 L 182.0 303.0 L 181.0 304.0 L 176.0 304.0 L 175.0 305.0 L 173.0 305.0 L 173.0 310.0 L 243.0 310.0 L 243.0 305.0 L 242.0 304.0 L 236.0 304.0 L 235.0 303.0 L 232.0 303.0 L 231.0 302.0 L 229.0 302.0 L 224.0 298.0 L 224.0 297.0 L 221.0 292.0 L 221.0 287.0 L 220.0 286.0 L 220.0 158.0 L 221.0 157.0 L 221.0 148.0 L 222.0 147.0 L 222.0 145.0 L 224.0 143.0 L 224.0 142.0 L 229.0 138.0 L 230.0 138.0 L 231.0 137.0 L 234.0 137.0 L 235.0 136.0 L 238.0 136.0 L 239.0 135.0 L 243.0 135.0 L 243.0 130.0 Z" />
  <path class="logo-element" d="M 255.0 130.0 L 255.0 135.0 L 259.0 135.0 L 260.0 136.0 L 264.0 136.0 L 265.0 137.0 L 267.0 137.0 L 268.0 138.0 L 271.0 139.0 L 275.0 143.0 L 275.0 144.0 L 276.0 145.0 L 276.0 147.0 L 277.0 148.0 L 277.0 291.0 L 276.0 292.0 L 276.0 294.0 L 275.0 295.0 L 274.0 298.0 L 269.0 302.0 L 267.0 302.0 L 266.0 303.0 L 263.0 303.0 L 262.0 304.0 L 256.0 304.0 L 255.0 305.0 L 255.0 310.0 L 325.0 310.0 L 325.0 305.0 L 324.0 304.0 L 319.0 304.0 L 318.0 303.0 L 314.0 303.0 L 313.0 302.0 L 310.0 301.0 L 305.0 296.0 L 305.0 295.0 L 304.0 294.0 L 304.0 292.0 L 303.0 291.0 L 303.0 277.0 L 302.0 276.0 L 302.0 166.0 L 303.0 165.0 L 303.0 149.0 L 304.0 148.0 L 304.0 146.0 L 307.0 142.0 L 307.0 141.0 L 311.0 138.0 L 312.0 138.0 L 313.0 137.0 L 316.0 137.0 L 317.0 136.0 L 320.0 136.0 L 321.0 135.0 L 325.0 135.0 L 325.0 130.0 Z" />
</svg>
